<?xml version="1.0" encoding="utf-8"?>
<!-- Generator: Adobe Illustrator 19.1.0, SVG Export Plug-In . SVG Version: 6.00 Build 0)  -->
<svg version="1.1" xmlns="http://www.w3.org/2000/svg" xmlns:xlink="http://www.w3.org/1999/xlink" x="0px" y="0px"
	 viewBox="0 0 216.754 56.868" style="enable-background:new 0 0 216.754 56.868;" xml:space="preserve">
<style type="text/css">
	.st0{fill:none;stroke:#99CCCC;}
	.st1{fill:#CC9966;stroke:#999999;}
	.st2{fill:#66FFFF;stroke:#99CCCC;}
	.st3{fill:#FFFF33;stroke:#99CCCC;}
	.st4{fill:none;stroke:#131312;stroke-width:0.25;}
	.st5{fill:#CC9966;}
	.st6{fill:#131312;}
</style>
<g>
	<g>
		<g>
			<path class="st0" d="M160.927,31.806c6.03,0,7.676,3.725,7.676,9.858c0,4.934-2.822,4.766-3.265,4.766"/>
			<path class="st0" d="M169.734,31.806c-6.028,0-7.677,3.725-7.677,9.858c0,4.934,2.825,4.766,3.265,4.766"/>
		</g>
		<g>
			<path class="st0" d="M169.677,31.806c6.028,0,7.673,3.725,7.673,9.858c0,4.934-2.822,4.766-3.262,4.766"/>
			<path class="st0" d="M178.483,31.806c-6.027,0-7.675,3.725-7.675,9.858c0,4.934,2.822,4.766,3.264,4.766"/>
		</g>
		<g>
			<path class="st0" d="M178.357,31.806c6.03,0,7.677,3.725,7.677,9.858c0,4.934-2.823,4.766-3.266,4.766"/>
			<path class="st0" d="M187.168,31.806c-6.029,0-7.677,3.725-7.677,9.858c0,4.934,2.822,4.766,3.265,4.766"/>
		</g>
		<g>
			<path class="st0" d="M187.049,31.806c6.028,0,7.673,3.725,7.673,9.858c0,4.934-2.82,4.766-3.261,4.766"/>
			<path class="st0" d="M195.855,31.806c-6.028,0-7.675,3.725-7.675,9.858c0,4.934,2.824,4.766,3.265,4.766"/>
		</g>
		<g>
			<path class="st0" d="M195.871,31.806c6.027,0,7.677,3.725,7.677,9.858c0,4.934-2.825,4.766-3.266,4.766"/>
			<path class="st0" d="M204.68,31.806c-6.03,0-7.678,3.725-7.678,9.858c0,4.934,2.824,4.766,3.266,4.766"/>
		</g>
	</g>
	<path class="st0" d="M204.581,31.806c3.749,0,5.215,2.613,5.593,7.066"/>
	<path class="st0" d="M160.97,31.806c-3.749,0-5.217,2.613-5.593,7.066"/>
</g>
<g>
	<g>
		<g>
			<path class="st0" d="M86.143,31.806c3.982,0,5.07,3.725,5.07,9.857c0,4.934-1.864,4.766-2.156,4.766"/>
			<path class="st0" d="M91.96,31.806c-3.982,0-5.07,3.725-5.07,9.857c0,4.934,1.866,4.766,2.157,4.766"/>
		</g>
		<g>
			<path class="st0" d="M91.922,31.806c3.982,0,5.068,3.725,5.068,9.857c0,4.934-1.864,4.766-2.154,4.766"/>
			<path class="st0" d="M97.74,31.806c-3.982,0-5.07,3.725-5.07,9.857c0,4.934,1.864,4.766,2.156,4.766"/>
		</g>
		<g>
			<path class="st0" d="M97.656,31.806c3.983,0,5.071,3.725,5.071,9.857c0,4.934-1.865,4.766-2.157,4.766"/>
			<path class="st0" d="M103.477,31.806c-3.984,0-5.071,3.725-5.071,9.857c0,4.934,1.865,4.766,2.157,4.766"/>
		</g>
		<g>
			<path class="st0" d="M103.398,31.806c3.981,0,5.068,3.725,5.068,9.857c0,4.934-1.863,4.766-2.154,4.766"/>
			<path class="st0" d="M109.215,31.806c-3.982,0-5.07,3.725-5.07,9.857c0,4.934,1.867,4.766,2.157,4.766"/>
		</g>
		<g>
			<path class="st0" d="M109.227,31.806c3.98,0,5.07,3.725,5.07,9.857c0,4.934-1.867,4.766-2.157,4.766"/>
			<path class="st0" d="M115.044,31.806c-3.983,0-5.071,3.725-5.071,9.857c0,4.934,1.865,4.766,2.157,4.766"/>
		</g>
	</g>
	<path class="st0" d="M114.979,31.806c2.478,0,3.444,2.613,3.695,7.066"/>
	<path class="st0" d="M86.171,31.806c-2.478,0-3.446,2.613-3.694,7.066"/>
</g>
<g>
	<g>
		<g>
			<path class="st0" d="M10.52,31.806c4.348,0,5.535,3.725,5.535,9.857c0,4.934-2.036,4.766-2.354,4.766"/>
			<path class="st0" d="M16.87,31.806c-4.348,0-5.535,3.725-5.535,9.857c0,4.934,2.037,4.766,2.354,4.766"/>
		</g>
		<g>
			<path class="st0" d="M16.828,31.806c4.346,0,5.533,3.725,5.533,9.857c0,4.934-2.036,4.766-2.352,4.766"/>
			<path class="st0" d="M23.178,31.806c-4.346,0-5.535,3.725-5.535,9.857c0,4.934,2.036,4.766,2.354,4.766"/>
		</g>
		<g>
			<path class="st0" d="M23.087,31.806c4.348,0,5.535,3.725,5.535,9.857c0,4.934-2.036,4.766-2.354,4.766"/>
			<path class="st0" d="M29.439,31.806c-4.348,0-5.535,3.725-5.535,9.857c0,4.934,2.036,4.766,2.354,4.766"/>
		</g>
		<g>
			<path class="st0" d="M29.354,31.806c4.346,0,5.533,3.725,5.533,9.857c0,4.934-2.034,4.766-2.352,4.766"/>
			<path class="st0" d="M35.704,31.806c-4.348,0-5.535,3.725-5.535,9.857c0,4.934,2.038,4.766,2.354,4.766"/>
		</g>
		<g>
			<path class="st0" d="M35.715,31.806c4.346,0,5.535,3.725,5.535,9.857c0,4.934-2.037,4.766-2.354,4.766"/>
			<path class="st0" d="M42.065,31.806c-4.348,0-5.535,3.725-5.535,9.857c0,4.934,2.036,4.766,2.354,4.766"/>
		</g>
	</g>
	<path class="st0" d="M41.995,31.806c2.704,0,3.76,2.613,4.033,7.066"/>
	<path class="st0" d="M10.55,31.806c-2.704,0-3.761,2.613-4.033,7.066"/>
</g>
<g>
	<rect x="210.25" y="11.368" class="st1" width="6" height="45"/>
	<rect x="0.504" y="50.368" class="st1" width="215.75" height="6"/>
	<rect x="0.5" y="11.368" class="st1" width="6" height="45"/>
</g>
<rect x="118.605" y="27.868" class="st2" width="36.751" height="21.5"/>
<rect x="46.002" y="27.847" class="st3" width="36.75" height="21.5"/>
<line class="st4" x1="64.376" y1="5.19" x2="64.376" y2="28.315"/>
<g>
	<path d="M68.892,10.295l2.707-3.158l-1.553-3.064h1.172l0.527,1.107c0.195,0.414,0.371,0.811,0.527,1.189l1.793-2.297h1.295
		l-2.613,3.146l1.57,3.076h-1.172l-0.621-1.266c-0.133-0.27-0.283-0.604-0.451-1.002l-1.852,2.268H68.892z"/>
</g>
<g>
	<path d="M77.398,12.584h-0.703v-4.48c-0.169,0.161-0.391,0.323-0.666,0.484s-0.521,0.282-0.74,0.363v-0.68
		c0.393-0.185,0.737-0.409,1.031-0.672s0.502-0.519,0.625-0.766h0.453V12.584z"/>
</g>
<g>
	<path d="M151.156,11.909v0.676h-3.785c-0.005-0.169,0.022-0.332,0.082-0.488c0.097-0.258,0.251-0.512,0.463-0.762
		s0.519-0.539,0.92-0.867c0.622-0.511,1.043-0.915,1.262-1.213s0.328-0.58,0.328-0.846c0-0.278-0.1-0.514-0.299-0.705
		s-0.459-0.287-0.779-0.287c-0.339,0-0.609,0.102-0.812,0.305s-0.306,0.484-0.309,0.844l-0.723-0.074
		c0.05-0.539,0.235-0.95,0.559-1.232s0.757-0.424,1.301-0.424c0.55,0,0.984,0.152,1.305,0.457s0.48,0.683,0.48,1.133
		c0,0.229-0.047,0.454-0.141,0.676s-0.249,0.454-0.467,0.699s-0.579,0.581-1.084,1.008c-0.422,0.354-0.692,0.595-0.812,0.721
		s-0.219,0.253-0.297,0.381H151.156z"/>
</g>
<g>
	<path d="M140.955,10.474l2.707-3.158l-1.553-3.064h1.172l0.527,1.107c0.195,0.414,0.371,0.811,0.527,1.189l1.793-2.297h1.295
		l-2.613,3.146l1.57,3.076h-1.172l-0.621-1.266c-0.133-0.27-0.283-0.604-0.451-1.002l-1.852,2.268H140.955z"/>
</g>
<g>
	<g>
		<path d="M179.694,26.974l1.799-8.59h1.055l-1.113,5.326l3.094-2.959h1.4l-2.654,2.32l1.605,3.902h-1.16l-1.242-3.193l-1.289,1.113
			l-0.434,2.08H179.694z"/>
	</g>
	<g>
		<path d="M185.941,28.011l0.703-0.094c0.081,0.398,0.218,0.686,0.412,0.861s0.431,0.264,0.709,0.264
			c0.331,0,0.61-0.114,0.838-0.344s0.342-0.513,0.342-0.852c0-0.323-0.105-0.589-0.316-0.799s-0.479-0.314-0.805-0.314
			c-0.133,0-0.298,0.026-0.496,0.078l0.078-0.617c0.047,0.005,0.085,0.008,0.113,0.008c0.3,0,0.569-0.078,0.809-0.234
			s0.359-0.397,0.359-0.723c0-0.258-0.087-0.472-0.262-0.641s-0.399-0.254-0.676-0.254c-0.273,0-0.501,0.086-0.684,0.258
			s-0.3,0.43-0.352,0.773l-0.703-0.125c0.086-0.472,0.281-0.837,0.586-1.096s0.684-0.389,1.137-0.389
			c0.312,0,0.601,0.067,0.863,0.201s0.464,0.317,0.604,0.549s0.209,0.478,0.209,0.738c0,0.247-0.066,0.473-0.199,0.676
			s-0.329,0.364-0.59,0.484c0.339,0.078,0.602,0.24,0.789,0.486s0.281,0.554,0.281,0.924c0,0.5-0.183,0.924-0.547,1.271
			s-0.825,0.521-1.383,0.521c-0.503,0-0.92-0.149-1.252-0.449S185.988,28.487,185.941,28.011z"/>
	</g>
</g>
<g>
	<g>
		<path d="M23.403,26.974l1.799-8.59h1.055l-1.113,5.326l3.094-2.959h1.4l-2.654,2.32l1.605,3.902h-1.16l-1.242-3.193l-1.289,1.113
			l-0.434,2.08H23.403z"/>
	</g>
	<g>
		<path d="M32.294,29.522h-0.703v-4.48c-0.169,0.161-0.391,0.323-0.666,0.484s-0.521,0.282-0.74,0.363v-0.68
			c0.393-0.185,0.737-0.409,1.031-0.672s0.502-0.519,0.625-0.766h0.453V29.522z"/>
	</g>
</g>
<g>
	<g>
		<path d="M97.735,26.974l1.799-8.59h1.055l-1.113,5.326l3.094-2.959h1.4l-2.654,2.32l1.605,3.902h-1.16l-1.242-3.193l-1.289,1.113
			l-0.434,2.08H97.735z"/>
	</g>
	<g>
		<path d="M108.175,28.846v0.676h-3.785c-0.005-0.169,0.022-0.332,0.082-0.488c0.097-0.258,0.251-0.512,0.463-0.762
			s0.519-0.539,0.92-0.867c0.622-0.511,1.043-0.915,1.262-1.213s0.328-0.58,0.328-0.846c0-0.278-0.1-0.514-0.299-0.705
			s-0.459-0.287-0.779-0.287c-0.339,0-0.609,0.102-0.812,0.305s-0.306,0.484-0.309,0.844l-0.723-0.074
			c0.05-0.539,0.235-0.95,0.559-1.232s0.757-0.424,1.301-0.424c0.55,0,0.984,0.152,1.305,0.457s0.48,0.683,0.48,1.133
			c0,0.229-0.047,0.454-0.141,0.676s-0.249,0.454-0.467,0.699s-0.579,0.581-1.084,1.008c-0.422,0.354-0.692,0.595-0.812,0.721
			s-0.219,0.253-0.297,0.381H108.175z"/>
	</g>
</g>
<g>
	<path d="M58.374,41.974l1.301-6.223h1.061l-0.217,1.025c0.395-0.441,0.747-0.746,1.058-0.914s0.647-0.252,1.011-0.252
		c0.387,0,0.71,0.103,0.97,0.308s0.431,0.491,0.513,0.858c0.316-0.391,0.649-0.683,0.999-0.876s0.718-0.29,1.104-0.29
		c0.52,0,0.909,0.123,1.169,0.369s0.39,0.592,0.39,1.037c0,0.191-0.045,0.508-0.135,0.949l-0.838,4.008h-1.061l0.855-4.113
		c0.074-0.336,0.111-0.576,0.111-0.721c0-0.203-0.064-0.363-0.193-0.48s-0.311-0.176-0.545-0.176c-0.316,0-0.639,0.096-0.967,0.287
		s-0.583,0.442-0.765,0.753s-0.341,0.788-0.478,1.433l-0.633,3.018h-1.061l0.879-4.201c0.062-0.285,0.094-0.488,0.094-0.609
		c0-0.203-0.063-0.367-0.19-0.492s-0.292-0.188-0.495-0.188c-0.301,0-0.616,0.096-0.946,0.287s-0.599,0.458-0.806,0.8
		s-0.377,0.829-0.51,1.462l-0.615,2.941H58.374z"/>
</g>
<g>
	<path d="M70.68,45.856h-0.703v-4.48c-0.169,0.161-0.391,0.323-0.666,0.484s-0.521,0.282-0.74,0.363v-0.68
		c0.393-0.185,0.737-0.409,1.031-0.672s0.502-0.519,0.625-0.766h0.453V45.856z"/>
</g>
<g>
	<g>
		<path d="M131.291,41.974l1.301-6.223h1.061l-0.217,1.025c0.395-0.441,0.747-0.746,1.058-0.914s0.647-0.252,1.011-0.252
			c0.387,0,0.71,0.103,0.97,0.308s0.431,0.491,0.513,0.858c0.316-0.391,0.649-0.683,0.999-0.876s0.718-0.29,1.104-0.29
			c0.52,0,0.909,0.123,1.169,0.369s0.39,0.592,0.39,1.037c0,0.191-0.045,0.508-0.135,0.949l-0.838,4.008h-1.061l0.855-4.113
			c0.074-0.336,0.111-0.576,0.111-0.721c0-0.203-0.064-0.363-0.193-0.48s-0.311-0.176-0.545-0.176c-0.316,0-0.639,0.096-0.967,0.287
			s-0.583,0.442-0.765,0.753s-0.341,0.788-0.478,1.433l-0.633,3.018h-1.061l0.879-4.201c0.062-0.285,0.094-0.488,0.094-0.609
			c0-0.203-0.063-0.367-0.19-0.492s-0.292-0.188-0.495-0.188c-0.301,0-0.616,0.096-0.946,0.287s-0.599,0.458-0.806,0.8
			s-0.377,0.829-0.51,1.462l-0.615,2.941H131.291z"/>
	</g>
	<g>
		<path d="M145.445,45.181v0.676h-3.785c-0.005-0.169,0.022-0.332,0.082-0.488c0.097-0.258,0.251-0.512,0.463-0.762
			s0.519-0.539,0.92-0.867c0.622-0.511,1.043-0.915,1.262-1.213s0.328-0.58,0.328-0.846c0-0.278-0.1-0.514-0.299-0.705
			s-0.459-0.287-0.779-0.287c-0.339,0-0.609,0.102-0.812,0.305s-0.306,0.484-0.309,0.844l-0.723-0.074
			c0.05-0.539,0.235-0.95,0.559-1.232s0.757-0.424,1.301-0.424c0.55,0,0.984,0.152,1.305,0.457s0.48,0.683,0.48,1.133
			c0,0.229-0.047,0.454-0.141,0.676s-0.249,0.454-0.467,0.699s-0.579,0.581-1.084,1.008c-0.422,0.354-0.692,0.595-0.812,0.721
			s-0.219,0.253-0.297,0.381H145.445z"/>
	</g>
</g>
<rect x="210.772" y="47.431" class="st5" width="4.958" height="5.75"/>
<rect x="3.752" y="50.89" class="st5" width="5.75" height="4.957"/>
<g>
	<g>
		<line class="st6" x1="53.814" y1="15.431" x2="82.814" y2="15.431"/>
		<path class="st6" d="M82.509,15.431l-0.657-1.081l0.036-0.024l1.763,0.7c0.614,0.135,1.229,0.271,1.843,0.405
			c-0.614,0.135-1.229,0.27-1.843,0.405l-1.763,0.7l-0.036-0.019L82.509,15.431z"/>
	</g>
	<g>
		<line class="st4" x1="53.814" y1="15.431" x2="82.814" y2="15.431"/>
		<path class="st6" d="M82.738,15.431l-0.165-0.271l0.01-0.006l0.44,0.175c0.153,0.034,0.307,0.067,0.461,0.102
			c-0.154,0.034-0.308,0.067-0.461,0.102l-0.44,0.175l-0.01-0.005L82.738,15.431z"/>
	</g>
</g>
<circle cx="64.393" cy="15.353" r="0.453"/>
<line class="st4" x1="136.475" y1="5.306" x2="136.475" y2="28.306"/>
<g>
	<g>
		<line class="st6" x1="125.912" y1="15.546" x2="154.912" y2="15.546"/>
		<path class="st6" d="M154.606,15.546l-0.657-1.081l0.036-0.024l1.763,0.7c0.614,0.135,1.229,0.27,1.843,0.405
			c-0.614,0.135-1.229,0.271-1.843,0.405l-1.763,0.7l-0.036-0.019L154.606,15.546z"/>
	</g>
	<g>
		<line class="st4" x1="125.912" y1="15.546" x2="154.912" y2="15.546"/>
		<path class="st6" d="M154.836,15.546l-0.165-0.271l0.01-0.006l0.44,0.175c0.153,0.034,0.307,0.067,0.461,0.102
			c-0.154,0.034-0.308,0.067-0.461,0.102l-0.44,0.175l-0.01-0.005L154.836,15.546z"/>
	</g>
</g>
<circle cx="136.49" cy="15.468" r="0.453"/>
</svg>
